<?xml version="1.0" encoding="utf-8"?>
<!-- Generator: Adobe Illustrator 19.0.0, SVG Export Plug-In . SVG Version: 6.00 Build 0)  -->
<svg version="1.1" id="Calque_1" xmlns="http://www.w3.org/2000/svg" xmlns:xlink="http://www.w3.org/1999/xlink" x="0px" y="0px"
	 viewBox="0 0 1062 327" style="enable-background:new 0 0 1062 327;" xml:space="preserve">
<style type="text/css">
	.st0{fill:#EB477B;}
	.st1{fill:#FAE245;}
	.st2{fill:#38255F;}
</style>
<g id="XMLID_23_">
	<path id="XMLID_35_" class="st0" d="M675.7,288.7c3.5,0,12.8-0.4,18.3-1.3c0.1,1.9,0.2,4.4,0.3,6.3c-5.8,0.7-14.5,1-18.1,1h-21.8
		c-13.2,0-19.6-5.7-19.6-18.2v-51l8.6,0.5c-0.2,0.9-0.8,1.4-2.4,1.7V256c13.4-4.2,32-11.2,43.3-17.3l4.5,6c-0.3,0.2-0.6,0.3-1,0.3
		c-0.4,0-0.9-0.1-1.3-0.3c-10.6,5.3-30.5,12.8-45.5,17.2v14.6c0,8.9,4.3,12.1,13.3,12.1H675.7z M693.9,219.1c5.4,0,9.8,4.4,9.8,9.8
		c0,5.4-4.4,9.8-9.8,9.8s-9.9-4.4-9.9-9.8C684,223.3,688.6,219.1,693.9,219.1z M700.7,228.9c0-3.8-3.1-7-6.8-7c-3.8,0-6.9,3.1-6.9,7
		s3.1,7,6.9,7C697.8,235.9,700.7,232.5,700.7,228.9z"/>
	<path id="XMLID_33_" class="st0" d="M773.4,238.9c-0.3,0.4-0.8,0.9-1.3,1.2c-9.2,28.3-23.5,46.5-47.6,58.7c-1-1.5-2.7-3.5-4.5-4.8
		c22.9-11.1,37-28.6,44.3-51.7h-31.2c-5.1,7.9-11.8,15.5-19.6,21.6c-1.2-1.2-3.2-2.9-5-4c11.9-9.2,21.9-22.5,27.9-37.9l8.3,2.4
		c-0.3,0.9-1.4,1.1-2.5,1.1c-1.7,3.8-3.6,7.5-5.6,11h30.8l1-0.5L773.4,238.9z"/>
	<path id="XMLID_30_" class="st0" d="M858.8,282.9v5.9h-72.1v-5.9H858.8z M850.3,234.9v6H796v-6H850.3z"/>
	<path id="XMLID_26_" class="st0" d="M878.8,245.7c2.6,5.3,5.5,13.7,6.6,18.8l-4.9,1.3c-1-5.1-3.8-13-6.4-18.6L878.8,245.7z
		 M931,246.3c-0.2,0.8-1,1-1.8,0.9c-6.8,25.5-19.7,41.1-40.8,49.7c-0.7-1-2.3-3.1-3.4-4c20.9-8.2,32.8-22.5,39.2-48.6L931,246.3z
		 M900.1,241.5c1.8,5.9,3.5,14.2,4.1,19.8l-5.2,1c-0.5-5.6-2.2-13.6-4.1-19.7L900.1,241.5z"/>
	<path id="XMLID_24_" class="st0" d="M1006.7,238.9c-0.3,0.4-0.8,0.9-1.3,1.2c-9.2,28.3-23.5,46.5-47.6,58.7c-1-1.5-2.7-3.5-4.5-4.8
		c22.9-11.1,37-28.6,44.3-51.7h-31.2c-5.1,7.9-11.8,15.5-19.6,21.6c-1.2-1.2-3.2-2.9-5-4c11.9-9.2,21.9-22.5,27.9-37.9l8.3,2.4
		c-0.3,0.9-1.4,1.1-2.5,1.1c-1.7,3.8-3.6,7.5-5.6,11h30.8l1-0.5L1006.7,238.9z"/>
</g>
<rect id="XMLID_22_" x="257.1" y="29.6" class="st1" width="120.5" height="77.3"/>
<rect id="XMLID_21_" x="736.4" y="29.6" class="st1" width="116.6" height="77.3"/>
<path id="XMLID_19_" class="st2" d="M197.3,201.8V72.5h38v129.4H197.3z"/>
<path id="XMLID_17_" class="st2" d="M295.1,201.8h-38V29.6h38v77l43.9-77h37l-48.4,86.1l51,86.1H339l-43.9-77V201.8z"/>
<path id="XMLID_15_" class="st2" d="M613.1,201.8l-43.2-95.1l1.1,95.1h-38V29.6h38L612.8,137l0.3-107.4h38v172.2H613.1z"/>
<path id="XMLID_12_" class="st2" d="M55.3,29.6v172.2h38V140h80.1V29.8L55.3,29.6z M131,111.8H93.3V59.4H131V111.8z"/>
<polygon id="XMLID_11_" class="st2" points="474.4,29.6 474.4,172 430.6,172 430.6,29.6 393.2,29.6 393.2,201.8 513.4,201.8 
	513.4,29.6 "/>
<polygon id="XMLID_39_" class="st2" points="955,29.6 955,172 911.2,172 911.2,29.6 873.8,29.6 873.8,201.8 994,201.8 994,29.6 "/>
<path id="XMLID_8_" class="st2" d="M675,201.8V72.5h38v129.4H675z"/>
<path id="XMLID_6_" class="st2" d="M772.8,201.8h-38V29.6h38v77l43.9-77h37l-48.4,86.1l51,86.1h-39.6l-43.9-77V201.8z"/>
<path id="XMLID_4_" class="st0" d="M197.3,59.4V28.1h38v31.3H197.3z"/>
<path id="XMLID_2_" class="st0" d="M675,59.4V28.1h38v31.3H675z"/>
</svg>
